<?xml version="1.0" encoding="UTF-8"?>
<svg width="63px" height="45px" viewBox="0 0 63 45" version="1.1" xmlns="http://www.w3.org/2000/svg" xmlns:xlink="http://www.w3.org/1999/xlink">
    <!-- Generator: Sketch 48.2 (47327) - http://www.bohemiancoding.com/sketch -->
    <title>Page 1</title>
    <desc>Created with Sketch.</desc>
    <defs>
        <polygon id="path-1" points="0 0 63 0 63 45 0 45"></polygon>
    </defs>
    <g id="Metropol" stroke="none" stroke-width="1" fill="none" fill-rule="evenodd" transform="translate(-581.000000, -674.000000)">
        <g id="Page-1" transform="translate(581.000000, 674.000000)">
            <mask id="mask-2" fill="white">
                <use xlink:href="#path-1"></use>
            </mask>
            <g id="Clip-2"></g>
            <path d="M17.8091082,20.8122715 C22.3643018,22.3359103 27.0841501,20.5335525 30.2836992,17.1178181 C32.0477482,15.234088 33.3589016,12.9765778 34.368505,10.6125991 C35.2929291,8.44862894 36.5436204,5.69604064 36.1971991,3.27958828 C35.6967704,-0.209533173 31.5682341,-1.30045399 29.738019,1.9141311 C27.5355245,5.78235609 30.6434298,11.1126203 33.0527884,14.0773849 C36.0428115,17.7554878 40.2949339,21.9632709 45.0634561,23.0895545 C48.5158814,23.9051784 53.9198262,22.7047473 54.2327843,18.3688218 C54.5552489,13.8887838 49.1258263,13.0807647 45.8734204,13.6975209 C40.1523346,14.7827381 34.9639999,17.8193688 29.9038145,20.5476215 C24.2899634,23.5747462 18.3890123,26.592745 11.879257,26.8159483 C8.85577055,26.9193748 5.44745601,26.4596595 2.81716351,24.8519867 C-2.48639143,21.6107845 3.18487969,17.5467337 6.75594762,16.5349037 C19.7412343,12.8560403 30.4624237,24.3086176 41.4809802,28.8757316 C46.3050211,30.875056 51.8675364,32.0431664 56.9851418,30.4339726 C60.4946068,29.3301235 64.1698673,26.0512771 62.6457655,22.0089002 C60.9976973,17.6376121 55.1640531,16.6193179 51.1092882,16.9934783 C45.3828786,17.5220178 40.3915212,20.5426783 35.6948691,23.6329235 C29.8254799,27.4939239 23.2959509,32.1830963 15.8872493,31.6028435 C13.2546752,31.3967511 9.48092609,29.2419068 11.415714,26.0801757 C12.6819962,24.0101258 15.5256174,23.7314068 17.6874235,23.7454758 C21.1314829,23.7671498 24.5744016,24.846283 27.4165016,26.7908522 C30.4339038,28.8551984 32.7166342,31.9271919 33.8889909,35.3858938 C34.3981657,36.8874784 34.7426857,38.5076993 34.7776701,40.0936981 C34.7982044,41.033662 34.8620889,42.2698361 34.2734388,43.0786157 C31.9446964,44.0045105 30.6768931,43.7044978 30.4696487,42.1789577 C30.3757233,41.6679094 30.3468232,41.1545797 30.3825681,40.6382079 C30.6187126,34.1858429 35.1993839,28.2840715 40.9174276,25.6398528 C41.1889367,25.5147524 40.9520317,25.1223403 40.6835647,25.2409766 C36.4078658,27.1330721 33.0200856,30.5069795 31.1659138,34.8124854 C30.1677184,37.1300743 28.2219027,42.9485722 31.229418,44.699597 C32.3458759,45.3490543 33.699619,44.8726082 34.5073017,43.9661058 C35.9142819,42.3873316 35.5902962,39.8119371 35.2568039,37.9164194 C34.4312487,33.2261063 31.6990452,28.8932228 27.7458111,26.2201056 C24.1040138,23.7576437 19.2780717,22.4963734 14.9141514,23.3819623 C11.3389005,24.1078486 8.45497131,27.9437529 11.8720319,30.8967299 C15.4423393,33.9816517 21.8813654,32.0313788 25.6482697,30.422185 C31.1465203,28.0737964 35.7663589,24.1918826 40.9550738,21.2890978 C46.3133869,18.2916322 54.9317112,15.319643 60.2976296,19.9783958 C63.5340644,22.788401 62.3088508,27.0414332 58.7777107,28.9829605 C55.6241736,30.7168743 51.6298708,30.7887405 48.16946,30.1955595 C36.2854205,28.1582106 27.8481023,17.9783109 16.0682554,15.668327 C11.504696,14.7736122 5.92773061,14.9614529 2.11329313,17.9748887 C-1.09119941,20.5061749 -0.534871824,23.9572719 2.9939867,25.7634322 C13.0900205,30.9301914 24.2416698,24.3842862 33.0581121,19.6780028 C36.2762942,17.9600592 39.5629239,16.3204459 43.0529954,15.2268634 C44.8273116,14.6709462 46.7271151,14.1321401 48.6003002,14.2017248 C51.0480655,14.2929834 54.0844809,15.9440041 53.3695829,18.8905169 C52.1614812,23.8705762 45.2870519,22.884983 42.062025,21.0525859 C39.4222259,19.5529025 37.0851177,17.3634559 35.0164765,15.1584194 C32.6706221,12.6575528 30.5472228,9.63613181 29.9931768,6.17438794 C29.7920166,4.91653988 29.7479059,3.45450065 30.4243972,2.31034563 C31.3001473,0.800015374 32.6337364,0.473765787 34.425925,1.33197711 C35.1396823,2.09892981 35.4784983,2.99554581 35.4431337,4.02258559 C35.4591048,5.67854941 34.7483897,7.42234965 34.1772318,8.94826992 C31.6583569,15.6789738 25.8133047,22.287239 17.8737533,20.5757596 C17.7193657,20.5422981 17.6592839,20.7620793 17.8091082,20.8122715" id="Fill-1" fill="#C1A862" mask="url(#mask-2)"></path>
        </g>
    </g>
</svg>