<?xml version="1.0" encoding="UTF-8"?>
<svg width="65px" height="63px" viewBox="0 0 65 63" version="1.1" xmlns="http://www.w3.org/2000/svg" xmlns:xlink="http://www.w3.org/1999/xlink">
    <!-- Generator: Sketch 48.2 (47327) - http://www.bohemiancoding.com/sketch -->
    <title>Page 1</title>
    <desc>Created with Sketch.</desc>
    <defs>
        <polygon id="path-1" points="0.894234043 0.0170434783 5.0763617 0.0170434783 5.0763617 4.22142609 0.894234043 4.22142609"></polygon>
        <polygon id="path-3" points="0.917191489 0.829495652 5.09765957 0.829495652 5.09765957 5.03401739 0.917191489 5.03401739"></polygon>
    </defs>
    <g id="Ex-Machina" stroke="none" stroke-width="1" fill="none" fill-rule="evenodd" transform="translate(-607.000000, -562.000000)">
        <g id="Page-1" transform="translate(607.000000, 562.000000)">
            <g id="Group-9" transform="translate(1.000000, 2.000000)" stroke="#FFFFFF">
                <path d="M30.5286622,0.331909302 L0.705284444,37.4854442" id="Stroke-1"></path>
                <path d="M32.1675289,58.2988605 L0.73904,37.4293256" id="Stroke-3"></path>
                <path d="M60.8626444,38.565693 L32.1676667,58.2991349" id="Stroke-5"></path>
                <path d="M60.8626444,38.565693 L30.6920667,0.203344186" id="Stroke-7"></path>
            </g>
            <path d="M34,60 L32,2" id="Stroke-10" stroke="#FFFFFF" stroke-width="0.5"></path>
            <path d="M2,40 L62,40.787" id="Stroke-11" stroke="#FFFFFF" stroke-width="0.5"></path>
            <g id="Group-24">
                <path d="M34.6267447,40.3555478 C34.6267447,41.2028522 33.9435532,41.8929391 33.0985532,41.8929391 C32.2535532,41.8929391 31.5675957,41.2028522 31.5675957,40.3555478 C31.5675957,39.5068522 32.2535532,38.8181565 33.0985532,38.8181565 C33.9435532,38.8181565 34.6267447,39.5068522 34.6267447,40.3555478" id="Fill-12" fill="#FFFFFF"></path>
                <path d="M35.7625851,60.8977391 C35.7625851,62.058087 34.8276915,63 33.6715213,63 C32.5195,63 31.5818404,62.058087 31.5818404,60.8977391 C31.5818404,59.7373913 32.5195,58.7954783 33.6715213,58.7954783 C34.8276915,58.7954783 35.7625851,59.7373913 35.7625851,60.8977391" id="Fill-14" fill="#FFFFFF"></path>
                <path d="M4.18088298,39.7931826 C4.18088298,40.9535304 3.24598936,41.8954435 2.08981915,41.8954435 C0.937797872,41.8954435 0.000138297872,40.9535304 0.000138297872,39.7931826 C0.000138297872,38.6314435 0.937797872,37.6909217 2.08981915,37.6909217 C3.24598936,37.6909217 4.18088298,38.6314435 4.18088298,39.7931826" id="Fill-16" fill="#FFFFFF"></path>
                <g id="Group-20" transform="translate(29.042553, 0.000000)">
                    <mask id="mask-2" fill="white">
                        <use xlink:href="#path-1"></use>
                    </mask>
                    <g id="Clip-19"></g>
                    <path d="M5.0763617,2.11916522 C5.0763617,3.27812174 4.14008511,4.22142609 2.98529787,4.22142609 C1.83189362,4.22142609 0.894234043,3.27812174 0.894234043,2.11916522 C0.894234043,0.957426087 1.83189362,0.0169043478 2.98529787,0.0169043478 C4.14008511,0.0169043478 5.0763617,0.957426087 5.0763617,2.11916522" id="Fill-18" fill="#FFFFFF" mask="url(#mask-2)"></path>
                </g>
                <g id="Group-23" transform="translate(59.468085, 37.956522)">
                    <mask id="mask-4" fill="white">
                        <use xlink:href="#path-3"></use>
                    </mask>
                    <g id="Clip-22"></g>
                    <path d="M5.09793617,2.93175652 C5.09793617,4.09210435 4.16165957,5.03401739 3.00687234,5.03401739 C1.85346809,5.03401739 0.917191489,4.09210435 0.917191489,2.93175652 C0.917191489,1.7714087 1.85346809,0.829495652 3.00687234,0.829495652 C4.16165957,0.829495652 5.09793617,1.7714087 5.09793617,2.93175652" id="Fill-21" fill="#FFFFFF" mask="url(#mask-4)"></path>
                </g>
            </g>
        </g>
    </g>
</svg>