<?xml version="1.0" encoding="UTF-8"?>
<svg width="32px" height="48px" viewBox="0 0 32 48" version="1.1" xmlns="http://www.w3.org/2000/svg" xmlns:xlink="http://www.w3.org/1999/xlink">
    <!-- Generator: Sketch 48.2 (47327) - http://www.bohemiancoding.com/sketch -->
    <title>decoration--default</title>
    <desc>Created with Sketch.</desc>
    <defs>
        <polygon id="path-1" points="0 0 32 0 32 48 0 48"></polygon>
    </defs>
    <g id="Page-1" stroke="none" stroke-width="1" fill="none" fill-rule="evenodd">
        <g id="decoration--default">
            <mask id="mask-2" fill="white">
                <use xlink:href="#path-1"></use>
            </mask>
            <g id="path-1"></g>
            <path d="M21.4293294,32.839736 C21.4293294,32.839736 26.0687718,28.9250434 24.0012485,21.3924279 C22.2133902,14.8835012 16.8548093,7.30420285 15.9991677,0 C15.1418613,7.30420285 9.78328045,14.8835012 7.99708682,21.3924279 C5.92789887,28.9250434 10.5673412,32.839736 10.5673412,32.839736 C5.13717942,30.2605071 0,37.1278916 0,37.1278916 C13.9949019,35.6973949 15.9991677,48 15.9991677,48 C15.9991677,48 18.000104,35.6973949 32,37.1278916 C32,37.1278916 26.8594912,30.2605071 21.4293294,32.839736" id="Fill-1" fill="#000000" fill-rule="nonzero" mask="url(#mask-2)"></path>
        </g>
    </g>
</svg>